<?xml version="1.0" ?><!DOCTYPE svg  PUBLIC '-//W3C//DTD SVG 1.1//EN'  'http://www.w3.org/Graphics/SVG/1.1/DTD/svg11.dtd' [
	<!ENTITY stroke_color "#010101">
	<!ENTITY fill_color "#BBBBBB">
]>
<svg
   xmlns:svg="http://www.w3.org/2000/svg"
   xmlns="http://www.w3.org/2000/svg"
   version="1.0"
   width="55"
   height="55"
   viewBox="0 0 55 55"
   id="svg2"
   xml:space="preserve"><defs
   id="defs8" />

<g
   transform="matrix(4.3719556e-2,0,0,4.3719556e-2,-20.768996,2.0538233)"
   id="g2349"><path
     d="M 1221.3895,1035.6592 C 1220.0638,1019.8887 1223.9593,1021.9908 1237.1759,1013.6327 C 1229.0121,998.40563 1258.6354,994.95693 1245.7476,981.10919 C 1241.5299,966.21807 1230.6651,972.97819 1220.2573,965.99994 C 1238.6699,953.41167 1203.7708,932.95916 1199.6072,949.49992 C 1187.6648,969.22848 1192.5759,943.31319 1176.8457,941.53177 C 1160.5097,949.67893 1170.568,926.82277 1183.9384,936.17596 C 1194.4599,923.11765 1185.7511,914.49727 1181.2573,905.90442 C 1169.6821,897.18386 1194.4814,892.91365 1188.8126,878.28262 C 1200.9926,858.77634 1167.2381,862.13952 1159.6542,860.12574 C 1149.53,843.6775 1143.1014,876.6103 1132.6198,864.99994 C 1118.4928,872.06613 1120.3349,851.41893 1117.2311,840.34186 C 1103.9601,828.56106 1096.2074,837.11424 1088.7378,846.02005 C 1076.5478,850.25727 1056.7145,849.97628 1073.2573,870.99994 C 1061.0709,886.53591 1057.8213,850.22396 1049.2573,866.13904 C 1046.5445,857.46716 1025.8668,858.25945 1029.8445,870.74609 C 1003.9893,867.09876 1052.3119,845.51219 1024.5663,844.09165 C 1018.7246,827.39624 1052.6398,839.4625 1039.3742,816.19645 C 1037.427,802.64803 1053.8381,789.47909 1030.5289,777.79909 C 1018.8313,768.18808 1008.5362,801.92998 1002.553,778.49994 C 988.15991,772.69263 979.93162,778.96348 985.43341,760.33295 C 997.05602,756.14229 1009.4884,731.88139 985.14355,733.83105 C 973.43151,723.30563 969.27053,721.20308 979.25726,705.08875 C 963.33492,692.92627 971.39173,675.85792 961.83607,659.53422 C 954.39456,645.29415 932.22731,656.00155 928.40887,668.72009 C 912.01701,668.92396 917.85474,691.6089 899.14133,683.47455 C 891.48922,691.19954 889.93252,697.01555 888.91931,706.99994 C 877.61537,705.68184 870.54921,678.41738 860.32943,701.99992 C 858.48234,712.05793 839.29557,705.36212 838.75385,717.98901 C 850.33104,732.0525 838.01067,736.41971 832.83508,724.13086 C 819.68933,718.2934 840.5424,702.89398 831.50726,693.83362 C 823.24683,692.49668 805.79284,682.66023 802.242,695.92426 C 794.14175,696.20108 784.98495,708.76647 781.45729,712.79992 C 777.8567,696.999 753.5952,708.5113 742.3817,712.40125 C 735.20369,722.45949 740.85562,731.8291 738.39069,742.6181 C 728.36096,749.12929 740.30619,726.09024 731.34998,722.88239 C 729.73443,717.76288 738.81176,697.82424 754.34821,700.99994 C 760.33927,693.37466 770.76081,675.12577 754.00729,672.62504 C 751.18994,667.73226 769.07449,651.48178 751.33905,649.99994 C 743.06751,634.87601 721.70905,658.27618 725.38855,642.09192 C 744.32523,635.15773 732.68547,622.72702 728.25046,613.05038 C 724.42921,598.38469 709.61279,607.96437 704.52393,613.99994 C 702.75867,596.32878 687.73483,604.93865 678.6923,610.07107 C 671.5363,624.79241 661.66628,633.11096 665.77875,617.99994 C 678.65636,613.38735 685.89086,575.73497 663.51052,584.50219 C 667.32747,575.17128 648.62657,558.41188 637.09041,572.39299 C 627.71732,592.89125 639.96803,558.27612 622.55356,564.55784 C 597.86641,559.46423 633.3911,561.92369 633.53545,550.75548 C 628.31316,530.46151 642.68943,569.14319 655.55149,553.53228 C 665.67118,543.64992 660.32886,538.02388 677.47363,535.72046 C 684.79877,517.44699 661.92902,508.78747 665.07397,497.21658 C 669.57507,491.8194 676.55598,519.13493 689.75726,517.97449 C 703.45074,528.9462 703.1477,496.27181 713.82785,516.69318 C 729.33083,524.21973 724.62558,502.65814 735.08038,499.94614 C 744.97262,489.54087 711.18184,471.43269 730.95685,475.90378 C 739.69723,482.97047 755.37264,473.23816 759.49672,465.71632 C 750.08208,452.74523 754.1593,451.64817 764.44318,441.87665 C 761.23781,426.19014 751.96783,419.85374 737.68469,416.99991 C 730.51561,404.15291 730.82817,403.5397 733.28794,388.40925 C 734.553,374.91219 739.0018,378.97097 739.32084,392.62359 C 734.17619,403.73691 746.59929,421.77351 760.49249,416.04962 C 771.85681,424.78264 786.34204,408.60726 784.79779,411.81552 C 787.50731,428.93832 802.6387,420.79949 809.82845,434.23117 C 818.02298,429.63407 835.65996,436.21619 834.25726,420.96964 C 821.93257,407.74368 834.36463,400.2272 838.23987,392.46735 C 849.52268,383.147 834.55467,410.55859 844.00726,411.96851 C 858.16924,412.96048 859.83166,426.68136 873.16119,430.99991 C 875.02913,422.50357 892.85125,408.60509 890.28052,423.94382 C 889.68424,432.76655 901.10804,444.47949 911.60371,438.38751 C 915.40705,451.63377 931.38733,456.23503 941.17293,467.9029 C 959.84939,478.48026 962.53537,456.85181 969.25726,445.8819 C 960.10735,427.76069 990.64253,419.64941 972.80445,403.00286 C 974.79673,395.41075 991.76593,388.2725 999.5297,382.38797 C 995.75727,368.68289 985.18014,362.22607 982.45911,350.8501 C 992.94958,349.40872 1002.0113,340.22443 1012.1929,337.35758 C 1019.8346,351.4112 1033.4399,345.64482 1042.6353,333.89084 C 1051.8141,319.36221 1027.1271,310.26628 1042.2507,293.87236 C 1026.8471,286.68302 1016.1879,284.76021 1035.2573,272.75844 C 1015.8693,267.91342 1025.7689,242.7802 1029.3977,258.92108 C 1043.3099,270.55733 1045.1342,251.47924 1054.6645,261.06002 C 1057.9132,248.17097 1077.7156,244.8598 1069.0513,259.57675 C 1059.3434,284.39546 1091.83,264.56922 1095.5174,283.73218 C 1099.3484,296.24197 1124.4138,283.55644 1117.438,272.02248 C 1122.9179,256.45397 1125.6599,256.93062 1141.0658,255.64914 C 1149.2365,278.55504 1161.4084,254.88754 1176.6975,261.96351 C 1196.34,261.80318 1189.5347,245.67059 1187.2573,233.87881 C 1179.1256,225.77157 1173.1497,216.114 1185.9087,209.99992 C 1195.0075,200.3988 1183.9666,181.11518 1171.528,186.69489 C 1160.5058,177.07647 1179.3034,181.57642 1185.7573,178.0891 C 1191.0849,149.86856 1196.6938,182.09299 1210.4621,178.81011 C 1235.0491,174.10031 1214.0739,157.90757 1230.3177,151.46262 C 1242.208,157.63643 1245.6568,142.68315 1249.2573,134.08144 C 1236.3812,125.99722 1241.3751,107.90687 1228.1293,103.60995 C 1217.3343,107.2275 1219.3581,76.464506 1229.8168,91.398239 C 1237.3946,100.32325 1242.9532,101.47186 1242.6561,113.12949 C 1249.7845,116.49813 1255.2552,135.93074 1267.0424,122.15637 C 1272.039,115.89736 1297.7682,107.54259 1289.2573,118.67889 C 1281.6486,125.25473 1274.7089,120.32582 1267.0108,130.7101 C 1256.0659,132.97946 1260.0155,158.71899 1270.6075,155.72754 C 1284.0071,154.84419 1271.3285,171.89125 1276.0181,177.37624 C 1288.0448,198.55901 1296.3683,178.14377 1308.961,177.26461 C 1321.6063,171.60061 1297.4647,190.24798 1311.8055,193.15169 C 1326.2652,200.75129 1297.4297,196.83927 1299.7573,213.09741 C 1311.952,216.80973 1310.6345,227.54273 1301.666,233.08572 C 1294.8569,246.50861 1290.3037,265.83835 1314.5106,263.79978 C 1327.4996,249.14054 1342.6339,288.7259 1349.8048,262.82725 C 1359.4136,258.1682 1361.6745,245.43074 1366.7773,261.42108 C 1376.6776,262.6114 1378.1323,275.53995 1373.2795,284.74991 C 1384.1227,292.38729 1398.5065,316.60909 1413.2089,293.69544 C 1408.0239,277.37221 1422.9745,282.5849 1431.1041,284.99991 C 1435.2671,295.25475 1460.7185,296.92277 1458.2573,279.42548 C 1446.4427,269.04716 1471.402,264.73248 1460.5963,252.96723 C 1462.8397,248.80024 1473.9824,263.47806 1464.2573,268.8819 C 1467.3093,278.38634 1463.5223,294.19006 1481.4314,288.71138 C 1496.053,286.33692 1460.525,295.48587 1477.2768,306.3775 C 1487.4497,317.87711 1457.9374,295.59105 1459.3872,315.63428 C 1462.311,326.92031 1471.6198,329.78484 1458.8958,337.49991 C 1443.4004,337.79956 1437.8924,366.01393 1458.0911,362.74132 C 1468.7896,368.29299 1453.5207,399.82958 1475.6392,387.77027 C 1486.0207,400.37381 1499.4564,395.51632 1503.3061,380.29312 C 1513.8907,383.88378 1499.2699,394.11801 1503.5081,402.24991 C 1518.3923,404.65569 1499.7998,409.66636 1499.4377,416.74991 C 1493.6262,417.78802 1478.6413,425.09962 1478.236,433.93542 C 1474.4266,445.33171 1488.1713,465.45855 1498.6882,451.55002 C 1502.6604,457.53848 1498.2594,466.92343 1496.2573,471.92953 C 1486.8408,473.91994 1469.285,476.30968 1478.3984,490.15848 C 1492.8071,485.19499 1487.1822,507.12017 1476.2433,504.82721 C 1466.2341,506.82767 1479.455,524.10251 1463.2509,526.18042 C 1461.017,535.96075 1448.7811,543.05406 1439.7204,550.95673 C 1419.6639,559.83739 1439.8957,573.19142 1450.0079,580.14215 C 1460.9936,586.18072 1461.1207,598.49657 1471.1085,601.85109 C 1475.5796,613.02353 1467.5907,618.56621 1484.9118,621.00353 C 1494.7355,636.66761 1473.9626,627.09229 1475.9917,643.04895 C 1482.3895,651.57568 1496.157,646.77266 1500.2573,655.99994 C 1494.1164,660.6533 1508.7552,678.42711 1491.1971,666.71521 C 1477.5144,666.73448 1473.4903,691.71295 1482.1202,695.99994 C 1489.6958,706.26598 1500.749,703.08648 1504.2715,712.46265 C 1516.1428,720.47862 1500.0171,715.50928 1502.9819,729.16146 C 1513.1523,735.71397 1502.8218,750.47977 1498.2279,733.59918 C 1488.7421,715.053 1478.0229,744.05483 1464.3707,732.99994 C 1459.1787,747.0987 1467.5017,762.95516 1446.9048,763.7402 C 1435.1973,778.33452 1460.4031,783.155 1463.2573,789.99994 C 1473.4354,796.92637 1447.1827,805.6796 1467.1898,816.99994 C 1481.729,808.5685 1481.9753,814.46913 1472.4937,826.07031 C 1488.1847,834.08859 1488.5873,837.80336 1470.7057,833.16949 C 1465.3001,839.57206 1462.3076,855.91146 1468.3379,860.45007 C 1466.9017,868.44436 1457.2532,879.23946 1463.3053,860.34277 C 1447.7137,854.25858 1463.3171,845.36833 1455.2614,833.17661 C 1442.5943,822.19749 1432.2341,841.68748 1423.8573,838.99994 C 1404.5275,849.146 1421.2243,817.70242 1396.0573,817.99994 C 1394.4762,833.26873 1363.2443,829.39279 1377.2128,845.49994 C 1376.6818,858.71546 1367.8065,858.56515 1363.5084,868.74882 C 1356.3754,873.07916 1351.8646,852.8716 1341.8523,851.00391 C 1328.1036,867.15246 1314.2188,854.34872 1296.5073,865.25269 C 1292.9199,875.78332 1302.9215,888.81118 1306.7882,895.42487 C 1316.6689,907.26826 1292.2183,905.81445 1304.2573,919.82556 C 1314.1586,924.94502 1322.3935,926.12436 1306.2573,933.95703 C 1315.892,948.04468 1312.7068,948.25611 1299.5173,944.20288 C 1295.1224,922.53385 1271.0586,944.26957 1275.1567,952.59167 C 1282.2418,964.26441 1271.8822,966.79454 1262.2573,970.3822 C 1256.8006,985.47838 1264.8521,990.44458 1274.1695,999.71041 C 1284.0586,995.61379 1295.2095,1011.7182 1288.7878,1009.8926 C 1275.1281,1006.9839 1270.6838,1003.5752 1257.9231,995.99994 C 1249.7578,1000.1015 1241.1552,1010.7405 1241.9387,1017.6364 C 1238.5001,1019.1467 1231.15,1035.8918 1221.3895,1035.6592 z "
     style="fill:&stroke_color;"
     id="path2357" /><path
     d="M 1248.7051,958.56055 C 1231.4205,956.53857 1250.3218,935.49882 1237.4507,936.51931 C 1224.0892,935.88399 1220.8559,931.91305 1212.3702,922.01935 C 1194.5685,934.56296 1210.2947,916.4267 1204.1205,907.64026 C 1196.6084,895.70833 1202.2135,901.04215 1201.5122,885.79712 C 1206.8196,878.36064 1214.108,858.16935 1231.5073,855.94487 C 1244.643,848.26316 1180.9656,845.12663 1183.6184,847.24994 C 1174.9319,839.59378 1167.7556,853.53826 1161.7573,839.04437 C 1155.4493,843.60975 1146.0766,826.66688 1143.7006,842.7774 C 1130.5558,860.81439 1132.2853,819.65873 1136.1048,829.52448 C 1127.441,824.05919 1120.6253,825.69564 1116.2573,823.12238 C 1112.0282,820.96755 1090.4066,798.64421 1088.8988,807.08535 C 1095.0244,818.48813 1084.3193,837.72745 1071.4762,830.43279 C 1054.5337,841.2408 1061.4566,828.51359 1057.2573,814.7204 C 1052.1517,809.95415 1063.7519,795.70129 1073.8657,797.79413 C 1087.0146,798.01165 1062.5762,782.14992 1056.9482,781.99994 C 1055.1168,769.82702 1043.0326,779.50235 1043.3296,764.69336 C 1034.6024,751.10296 1030.6721,751.6036 1020.3501,761.34161 C 1006.6417,762.81795 1011.0165,752.58854 1016.5673,743.99994 C 1037.9807,744.57872 1006.517,730.11246 1009.3695,719.46558 C 1009.3382,704.87002 991.98874,725.69061 992.15948,713.99994 C 998.17287,706.85241 1003.8241,706.11615 995.37616,696.8537 C 998.56755,684.49464 973.05599,693.43166 988.91473,681.45026 C 983.03859,669.49232 978.54559,671.16922 980.25726,658.6016 C 972.36042,656.67588 976.42015,645.88303 973.22802,637.07803 C 970.18935,627.49702 969.27448,616.67585 966.55534,602.99992 C 968.47173,584.26622 962.21425,560.01071 959.48279,592.49994 C 953.50781,608.12871 945.02026,622.71471 937.7148,634.46385 C 933.51958,644.23996 927.0385,640.05954 923.64716,649.19922 C 918.28012,651.47557 911.53938,665.8889 900.22515,662.53865 C 886.78888,659.46243 891.05693,687.95785 884.21762,669.87298 C 877.8407,671.14674 854.42141,669.95065 856.99944,680.24866 C 850.4767,702.22592 846.2059,669.62242 841.26447,673.10303 C 825.98302,674.05297 827.55762,672.47613 815.68596,667.94967 C 789.63006,645.8645 809.09146,682.17422 788.86676,679.99994 C 780.86273,692.65826 774.372,667.86726 779.89467,662.80524 C 795.08102,655.64848 789.75053,654.61975 777.19484,645.45293 C 766.93423,646.96448 770.47598,626.62447 760.25726,631.99994 C 742.28157,636.69124 768.53613,623.40363 753.25726,617.83038 C 746.56565,610.35113 749.28761,608.57081 745.25726,595.36063 C 741.7127,568.56708 740.17341,565.9177 723.92511,585.04633 C 713.65262,589.05887 697.68271,590.42305 694.94019,583.10455 C 692.0452,568.85921 680.79241,566.70172 672.25726,560.09375 C 686.55786,559.47563 692.90812,549.07299 694.93268,536.40344 C 704.55177,536.41295 716.03096,531.78501 727.96863,539.90717 C 742.53277,569.84992 742.12724,534.78888 746.2644,521.49554 C 748.62038,509.29956 748.89404,510.83795 759.25726,499.50641 C 749.19639,492.26424 755.39225,487.64522 765.21412,491.20963 C 769.95456,480.18226 773.22093,480.25105 783.20935,472.0029 C 803.20128,465.73341 775.6373,465.60127 777.14008,453.28271 C 780.54766,439.9761 782.35633,437.51089 796.76898,442.99991 C 795.80553,469.47835 804.24923,457.94637 823.52933,453.60457 C 822.74439,443.55783 841.02331,454.88406 847.25726,448.62967 C 838.59985,434.26493 865.14645,430.97513 855.89274,449.38618 C 866.66749,444.06004 883.80105,462.81335 884.75726,447.7157 C 893.87432,445.73146 890.80347,466.62519 906.76738,461.48982 C 912.05337,457.59352 926.97094,472.34441 923.64716,473.8006 C 928.75428,482.17401 932.10798,480.54093 939.65639,489.49991 C 943.61139,502.86237 955.03137,514.77255 959.48279,530.49994 C 965.81286,573.12335 965.89332,517.41753 969.04998,503.31786 C 970.41635,493.78251 973.97483,489.4908 973.27661,479.22876 C 972.38259,467.07207 983.25144,467.81248 980.48512,456.38548 C 976.98068,451.81601 997.8158,442.94573 983.07593,434.85303 C 993.36005,435.20358 996.54645,428.25666 999.5959,418.74628 C 1003.8787,416.47819 984.80838,407.78322 993.8147,407.04404 C 1003.1273,404.48171 1012.1892,414.92028 1010.565,395.15857 C 1028.8056,383.31789 1024.806,381.35952 1013.1014,373.24414 C 1005.3568,361.66859 1020.0664,358.67321 1027.8011,365.37819 C 1030.1899,379.65461 1047.6185,356.62903 1045.4309,349.98712 C 1052.5188,349.6546 1056.5859,343.33897 1064.5022,337.99991 C 1074.7014,330.20816 1085.9219,324.86312 1064.6359,322.88456 C 1051.0167,315.4023 1057.5866,306.41769 1059.8748,295.06418 C 1053.0775,279.39691 1078.3286,298.94911 1083.2573,292.83463 C 1095.2806,297.43488 1085.3848,319.29437 1092.0999,318.39252 C 1102.9423,310.39903 1114.7725,300.40021 1120.0549,298.60266 C 1122.3239,297.91499 1141.4219,295.2823 1135.8937,289.05176 C 1124.3462,278.23435 1146.6775,270.03488 1145.2573,287.03412 C 1154.8658,285.93316 1160.1303,285.13329 1166.401,278.23894 C 1169.4665,274.70936 1191.1786,280.73342 1187.2742,277.20743 C 1206.2515,269.38238 1261.9395,276.07165 1215.5886,258.55433 C 1207.5511,248.07383 1198.9159,239.76823 1202.1918,226.50728 C 1193.4375,225.03247 1207.7071,218.21506 1207.2573,208.74867 C 1193.7745,190.39667 1210.7514,204.16616 1218.4588,195.16521 C 1221.7648,185.89195 1235.5424,188.7021 1244.2573,184.85794 C 1233.812,175.31121 1244.695,162.89057 1253.2573,163.11795 C 1267.4018,171.18909 1242.7041,190.65716 1265.5073,190.19689 C 1273.5542,195.7388 1273.9146,194.09362 1280.4624,205.36433 C 1300.9935,199.4015 1275.7438,212.74787 1286.062,225.45163 C 1294.1507,228.61803 1283.3931,238.21762 1281.7121,247.93668 C 1283.1772,261.60618 1240.578,268.56642 1260.0313,271.11491 C 1275.3709,272.08389 1290.1446,272.2944 1301.8123,275.99991 C 1306.7627,269.15704 1319.0895,289.6366 1321.1533,274.99991 C 1322.7254,284.91671 1327.4025,281.67169 1338.0496,288.26456 C 1352.3558,299.59411 1344.0619,282.92514 1354.1029,280.99991 C 1366.1033,272.64658 1360.8974,293.75473 1356.1794,297.40604 C 1364.2882,302.89794 1376.1865,302.65967 1380.2573,306.58963 C 1382.8803,316.56357 1395.8821,318.23365 1401.3259,327.5217 C 1418.9683,344.1724 1398.4493,316.37936 1413.2573,309.75504 C 1420.0897,304.46944 1423.2663,298.29264 1431.7014,303.38205 C 1442.9144,308.98897 1459.1759,301.8549 1443.2573,315.75504 C 1450.5257,325.09601 1446.196,332.63427 1438.0589,338.63 C 1417.649,342.39235 1417.0949,342.28704 1430.961,357.96478 C 1442.4303,360.20673 1435.5962,377.24307 1448.2354,374.05429 C 1448.879,379.04255 1446.8139,388.79961 1454.3693,395.78117 C 1456.2333,403.69743 1459.4129,418.78084 1464.0073,403.91098 C 1476.0122,393.85387 1490.8094,410.58647 1476.7095,419.09027 C 1465.4855,420.80026 1456.9026,413.49284 1465.8956,430.04058 C 1471.267,443.29928 1465.5659,444.99153 1471.6573,460.08289 C 1487.1035,453.21934 1479.6712,479.51275 1469.9421,466.91516 C 1474.4877,472.77309 1457.2585,497.07003 1472.1869,493.99991 C 1473.3282,499.10238 1456.566,499.68697 1462.1479,513.58807 C 1459.0802,520.46914 1450.4491,535.72666 1438.3301,546.61843 C 1421.5429,558.04807 1406.8608,564.68606 1437.3321,575.50792 C 1449.764,586.73993 1459.311,601.95428 1462.1479,609.4118 C 1455.9563,623.63892 1473.4672,624.01698 1472.1869,628.99994 C 1457.2938,626.03063 1474.2226,650.10844 1469.9421,656.08466 C 1480.0562,643.3743 1486.7662,669.92929 1471.6573,662.91693 C 1466.7021,678.72698 1470.3311,679.04088 1465.4082,694.21185 C 1455.43,711.77171 1468.7489,699.2841 1478.1907,704.67803 C 1490.7494,714.00768 1474.8792,728.94303 1464.0073,719.08887 C 1458.6988,703.62439 1456.7482,721.47306 1453.0213,728.70821 C 1445.7221,735.25511 1450.3236,744.10036 1448.2354,748.94556 C 1435.8386,746.29496 1442.3254,763.89839 1429.5316,766.30669 C 1414.22,783.21227 1421.0991,779.25833 1438.9794,784.82109 C 1446.2583,790.90741 1450.8374,798.53885 1443.2573,807.24481 C 1460.4472,821.71186 1441.1196,813.97796 1429.4503,819.25409 C 1423.6166,825.90839 1417.6428,816.72587 1411.7618,812.00372 C 1399.6144,802.26309 1419.142,780.03142 1399.3596,796.10223 C 1395.6905,807.48002 1379.3795,806.07148 1380.2573,818.69052 C 1372.4612,818.04427 1363.1808,822.14789 1354.8566,827.18768 C 1366.366,832.51678 1362.9899,849.53712 1351.8226,841.99994 C 1347.6313,833.9317 1348.2216,825.93485 1336.2573,836.14508 C 1322.5569,836.95393 1326.8029,844.93197 1320.4027,845.84671 C 1315.8959,835.51941 1306.4817,854.62918 1299.532,846.99994 C 1288.7867,851.67605 1271.7788,850.29154 1257.2142,852.10792 C 1246.4059,855.95792 1284.3992,862.41056 1282.319,877.26123 C 1285.6205,887.89825 1293.1873,893.19868 1285.7825,899.81134 C 1279.2969,914.64947 1299.2894,921.16816 1278.7573,918.70416 C 1273.5968,932.02917 1272.3917,928.24706 1259.1078,934.45073 C 1248.5408,938.12314 1266.0188,954.57109 1251.571,960.7337 C 1249.8335,962.24616 1249.5844,959.50232 1248.7051,958.56055 z "
     style="fill:&fill_color;"
     id="path2351" /></g></svg>
